# xmcd CD database file
#
# Track frame offsets:
#	150
#	12450
#	30250
#	45753
#	60758
#	84000
#	102695
#	127475
#	142253
#	166875
#	184300
#	195740
#	215508
#	232365
#	251698
#	267825
#
# Disc length: 3755 seconds
#
# Revision: 0
# Processed by: cddbd v1.5.1PL2 Copyright (c) Steve Scherf et al.
# Submitted via: CDex 1.70beta1
#
DISCID=e40ea910
DTITLE=Rhythm Rascals Washboard Band - Futuristic Jungleism
DYEAR=1995
DGENRE=Jazz
TTITLE0=Shoot 'em
TTITLE1=Sentimental Gentleman of Georgia
TTITLE2=Futuristic Jungleism
TTITLE3=Don't Give All The Lard Away
TTITLE4=Milenberg Joys
TTITLE5=Doctor Heckle and Mister Jive
TTITLE6=Down In Honky Tonk Town
TTITLE7=Pigmeat Stomp
TTITLE8=High Society
TTITLE9=Spreadin' Rhythm Around
TTITLE10=Rhythm Spasm
TTITLE11=Canal Street Blues
TTITLE12=Never Swat A Fly
TTITLE13=Sud Buster's Dream
TTITLE14=That Blue-Eyed Baby From Memphis
TTITLE15=Stomp Stomp
EXTD=YEAR: 1995
EXTT0=
EXTT1=
EXTT2=
EXTT3=
EXTT4=
EXTT5=
EXTT6=
EXTT7=
EXTT8=
EXTT9=
EXTT10=
EXTT11=
EXTT12=
EXTT13=
EXTT14=
EXTT15=
PLAYORDER=
